# Blender v3.3.0 OBJ File: 'ice_cube.blend'
# www.blender.org
mtllib ice_cube.mtl
o Cube
v 0.014543 0.015588 -0.017963
v 0.016730 -0.013424 -0.016217
v 0.016017 0.016017 0.016017
v 0.017681 -0.014704 0.014083
v -0.016017 0.016017 -0.016017
v -0.016017 -0.016017 -0.016017
v -0.011914 0.013709 0.016817
v -0.016017 -0.016017 0.016017
vt 0.625000 0.500000
vt 0.875000 0.500000
vt 0.875000 0.750000
vt 0.625000 0.750000
vt 0.375000 0.750000
vt 0.625000 1.000000
vt 0.375000 1.000000
vt 0.375000 0.000000
vt 0.625000 0.000000
vt 0.625000 0.250000
vt 0.375000 0.250000
vt 0.125000 0.500000
vt 0.375000 0.500000
vt 0.125000 0.750000
vn -0.0307 0.9991 0.0307
vn 0.0470 -0.0470 0.9978
vn -0.9957 0.0653 0.0653
vn 0.0580 -0.9981 -0.0214
vn 0.9972 0.0644 -0.0368
vn -0.0328 -0.0298 -0.9990
usemtl Material
s off
f 1/1/1 5/2/1 7/3/1 3/4/1
f 4/5/2 3/4/2 7/6/2 8/7/2
f 8/8/3 7/9/3 5/10/3 6/11/3
f 6/12/4 2/13/4 4/5/4 8/14/4
f 2/13/5 1/1/5 3/4/5 4/5/5
f 6/11/6 5/10/6 1/1/6 2/13/6
