# Blender v3.3.0 OBJ File: 'table.blend'
# www.blender.org
mtllib table.mtl
o Cube
v 1.000000 -0.034615 -2.364035
v 1.000000 0.034615 -2.364035
v 1.000000 -0.034615 2.364035
v 1.000000 0.034615 2.364035
v -1.000000 -0.034615 -2.278945
v -1.000000 0.034615 -2.364035
v -1.000000 -0.034615 2.364035
v -1.000000 0.034615 2.364035
v -1.000000 0.034615 -2.018678
v 1.000000 -0.034615 -2.018678
v -1.000000 -0.034615 -2.103768
v 1.000000 0.034615 -2.018678
v -0.850289 0.034615 -2.364035
v -0.850289 -0.034615 2.364035
v -0.850289 0.034615 2.364035
v -0.850289 -0.034615 -2.278945
v -0.850289 0.034615 -2.018678
v -0.850289 -0.034615 -2.103768
v -1.000000 -1.543883 -2.278945
v -1.000000 -1.543883 -2.103768
v -0.850289 -1.543883 -2.278945
v -0.850289 -1.543883 -2.103768
v -1.000000 -0.034615 -2.364035
v -1.000000 0.034615 -2.364035
v -1.000000 -0.034615 2.364035
v -1.000000 0.034615 2.364035
v 1.000000 -0.034615 -2.278945
v 1.000000 0.034615 -2.364035
v 1.000000 -0.034615 2.364035
v 1.000000 0.034615 2.364035
v 1.000000 0.034615 -2.018678
v -1.000000 -0.034615 -2.018678
v 1.000000 -0.034615 -2.103768
v -1.000000 0.034615 -2.018678
v 0.850289 0.034615 -2.364035
v 0.850289 -0.034615 2.364035
v 0.850289 0.034615 2.364035
v 0.850289 -0.034615 -2.278945
v 0.850289 0.034615 -2.018678
v 0.850289 -0.034615 -2.103768
v 1.000000 -1.543883 -2.278945
v 1.000000 -1.543883 -2.103768
v 0.850289 -1.543883 -2.278945
v 0.850289 -1.543883 -2.103768
v 1.000000 -0.034615 2.364035
v 1.000000 0.034615 2.364035
v 1.000000 -0.034615 -2.364035
v 1.000000 0.034615 -2.364035
v -1.000000 -0.034615 2.278945
v -1.000000 0.034615 2.364035
v -1.000000 -0.034615 -2.364035
v -1.000000 0.034615 -2.364035
v -1.000000 0.034615 2.018678
v 1.000000 -0.034615 2.018678
v -1.000000 -0.034615 2.103768
v 1.000000 0.034615 2.018678
v -0.850289 0.034615 2.364035
v -0.850289 -0.034615 -2.364035
v -0.850289 0.034615 -2.364035
v -0.850289 -0.034615 2.278945
v -0.850289 0.034615 2.018678
v -0.850289 -0.034615 2.103768
v -1.000000 -1.543883 2.278945
v -1.000000 -1.543883 2.103768
v -0.850289 -1.543883 2.278945
v -0.850289 -1.543883 2.103768
v -1.000000 -0.034615 2.364035
v -1.000000 0.034615 2.364035
v -1.000000 -0.034615 -2.364035
v -1.000000 0.034615 -2.364035
v 1.000000 -0.034615 2.278945
v 1.000000 0.034615 2.364035
v 1.000000 -0.034615 -2.364035
v 1.000000 0.034615 -2.364035
v 1.000000 0.034615 2.018678
v -1.000000 -0.034615 2.018678
v 1.000000 -0.034615 2.103768
v -1.000000 0.034615 2.018678
v 0.850289 0.034615 2.364035
v 0.850289 -0.034615 -2.364035
v 0.850289 0.034615 -2.364035
v 0.850289 -0.034615 2.278945
v 0.850289 0.034615 2.018678
v 0.850289 -0.034615 2.103768
v 1.000000 -1.543883 2.278945
v 1.000000 -1.543883 2.103768
v 0.850289 -1.543883 2.278945
v 0.850289 -1.543883 2.103768
vt 0.856286 0.518261
vt 0.856286 0.750000
vt 0.875000 0.750000
vt 0.875000 0.518261
vt 0.375000 0.981286
vt 0.375000 1.000000
vt 0.625000 1.000000
vt 0.625000 0.981286
vt 0.375000 0.231739
vt 0.375000 0.250000
vt 0.625000 0.250000
vt 0.625000 0.231739
vt 0.143714 0.518261
vt 0.143714 0.750000
vt 0.375000 0.750000
vt 0.375000 0.518261
vt 0.625000 0.750000
vt 0.625000 0.518261
vt 0.375000 0.268714
vt 0.375000 0.500000
vt 0.625000 0.500000
vt 0.625000 0.268714
vt 0.143714 0.500000
vt 0.375000 0.000000
vt 0.625000 0.000000
vt 0.625000 0.268714
vt 0.625000 0.250000
vt 0.856286 0.500000
vt 0.125000 0.500000
vt 0.125000 0.518261
vt 0.125000 0.750000
vt 0.856286 0.500000
vt 0.856286 0.518261
vt 0.875000 0.518261
vt 0.875000 0.500000
vt 0.625000 0.231739
vt 0.856286 0.518261
vt 0.875000 0.518261
vt 0.875000 0.750000
vt 0.856286 0.750000
vt 0.375000 0.981286
vt 0.625000 0.981286
vt 0.625000 1.000000
vt 0.375000 1.000000
vt 0.375000 0.231739
vt 0.625000 0.231739
vt 0.625000 0.250000
vt 0.375000 0.250000
vt 0.143714 0.518261
vt 0.375000 0.518261
vt 0.375000 0.750000
vt 0.143714 0.750000
vt 0.625000 0.518261
vt 0.625000 0.750000
vt 0.375000 0.268714
vt 0.625000 0.268714
vt 0.625000 0.500000
vt 0.375000 0.500000
vt 0.143714 0.500000
vt 0.375000 0.000000
vt 0.625000 0.000000
vt 0.625000 0.250000
vt 0.625000 0.268714
vt 0.856286 0.500000
vt 0.125000 0.500000
vt 0.125000 0.518261
vt 0.125000 0.750000
vt 0.856286 0.500000
vt 0.875000 0.500000
vt 0.875000 0.518261
vt 0.856286 0.518261
vt 0.625000 0.231739
vt 0.856286 0.518261
vt 0.875000 0.518261
vt 0.875000 0.750000
vt 0.856286 0.750000
vt 0.375000 0.981286
vt 0.625000 0.981286
vt 0.625000 1.000000
vt 0.375000 1.000000
vt 0.375000 0.231739
vt 0.625000 0.231739
vt 0.625000 0.250000
vt 0.375000 0.250000
vt 0.143714 0.518261
vt 0.375000 0.518261
vt 0.375000 0.750000
vt 0.143714 0.750000
vt 0.625000 0.518261
vt 0.625000 0.750000
vt 0.375000 0.268714
vt 0.625000 0.268714
vt 0.625000 0.500000
vt 0.375000 0.500000
vt 0.143714 0.500000
vt 0.375000 0.000000
vt 0.625000 0.000000
vt 0.625000 0.250000
vt 0.625000 0.268714
vt 0.856286 0.500000
vt 0.125000 0.500000
vt 0.125000 0.518261
vt 0.125000 0.750000
vt 0.856286 0.500000
vt 0.875000 0.500000
vt 0.875000 0.518261
vt 0.856286 0.518261
vt 0.625000 0.231739
vt 0.856286 0.518261
vt 0.856286 0.750000
vt 0.875000 0.750000
vt 0.875000 0.518261
vt 0.375000 0.981286
vt 0.375000 1.000000
vt 0.625000 1.000000
vt 0.625000 0.981286
vt 0.375000 0.231739
vt 0.375000 0.250000
vt 0.625000 0.250000
vt 0.625000 0.231739
vt 0.143714 0.518261
vt 0.143714 0.750000
vt 0.375000 0.750000
vt 0.375000 0.518261
vt 0.625000 0.750000
vt 0.625000 0.518261
vt 0.375000 0.268714
vt 0.375000 0.500000
vt 0.625000 0.500000
vt 0.625000 0.268714
vt 0.143714 0.500000
vt 0.375000 0.000000
vt 0.625000 0.000000
vt 0.625000 0.268714
vt 0.625000 0.250000
vt 0.856286 0.500000
vt 0.125000 0.500000
vt 0.125000 0.518261
vt 0.125000 0.750000
vt 0.856286 0.500000
vt 0.856286 0.518261
vt 0.875000 0.518261
vt 0.875000 0.500000
vt 0.625000 0.231739
vn 0.0000 -1.0000 0.0000
vn 0.0000 0.0000 1.0000
vn -1.0000 0.0000 0.0000
vn 0.0000 1.0000 0.0000
vn 1.0000 0.0000 0.0000
vn -0.0196 -0.5235 -0.8518
vn 0.0000 0.0000 -1.0000
vn 0.0000 -0.7757 -0.6311
vn 0.0196 -0.5235 -0.8518
vn -0.0196 -0.5235 0.8518
vn 0.0000 -0.7757 0.6311
vn 0.0196 -0.5235 0.8518
usemtl Material
s off
f 18/1/1 14/2/1 7/3/1 11/4/1
f 15/5/2 8/6/2 7/7/2 14/8/2
f 9/9/3 6/10/3 5/11/3 11/12/3
f 17/13/4 15/14/4 4/15/4 12/16/4
f 12/16/5 4/15/5 3/17/5 10/18/5
f 13/19/6 2/20/6 1/21/6 16/22/6
f 2/20/5 12/16/5 10/18/5 1/21/5
f 13/23/4 17/13/4 12/16/4 2/20/4
f 8/24/3 9/9/3 11/12/3 7/25/3
f 16/22/7 21/26/7 19/27/7 5/11/7
f 1/21/1 10/18/1 18/1/1 16/28/1
f 6/29/4 9/30/4 17/13/4 13/23/4
f 6/10/8 13/19/8 16/22/8 5/11/8
f 9/30/4 8/31/4 15/14/4 17/13/4
f 4/15/2 15/5/2 14/8/2 3/17/2
f 10/18/1 3/17/1 14/2/1 18/1/1
f 21/32/1 22/33/1 20/34/1 19/35/1
f 18/1/5 22/33/5 21/32/5 16/28/5
f 5/11/3 19/27/3 20/36/3 11/12/3
f 11/4/2 20/34/2 22/33/2 18/1/2
f 40/37/1 33/38/1 29/39/1 36/40/1
f 37/41/2 36/42/2 29/43/2 30/44/2
f 31/45/5 33/46/5 27/47/5 28/48/5
f 39/49/4 34/50/4 26/51/4 37/52/4
f 34/50/3 32/53/3 25/54/3 26/51/3
f 35/55/9 38/56/9 23/57/9 24/58/9
f 24/58/3 23/57/3 32/53/3 34/50/3
f 35/59/4 24/58/4 34/50/4 39/49/4
f 30/60/5 29/61/5 33/46/5 31/45/5
f 38/56/7 27/47/7 41/62/7 43/63/7
f 23/57/1 38/64/1 40/37/1 32/53/1
f 28/65/4 35/59/4 39/49/4 31/66/4
f 28/48/8 27/47/8 38/56/8 35/55/8
f 31/66/4 39/49/4 37/52/4 30/67/4
f 26/51/2 25/54/2 36/42/2 37/41/2
f 32/53/1 40/37/1 36/40/1 25/54/1
f 43/68/1 41/69/1 42/70/1 44/71/1
f 40/37/3 38/64/3 43/68/3 44/71/3
f 27/47/5 33/46/5 42/72/5 41/62/5
f 33/38/2 40/37/2 44/71/2 42/70/2
f 62/73/1 55/74/1 51/75/1 58/76/1
f 59/77/7 58/78/7 51/79/7 52/80/7
f 53/81/3 55/82/3 49/83/3 50/84/3
f 61/85/4 56/86/4 48/87/4 59/88/4
f 56/86/5 54/89/5 47/90/5 48/87/5
f 57/91/10 60/92/10 45/93/10 46/94/10
f 46/94/5 45/93/5 54/89/5 56/86/5
f 57/95/4 46/94/4 56/86/4 61/85/4
f 52/96/3 51/97/3 55/82/3 53/81/3
f 60/92/2 49/83/2 63/98/2 65/99/2
f 45/93/1 60/100/1 62/73/1 54/89/1
f 50/101/4 57/95/4 61/85/4 53/102/4
f 50/84/11 49/83/11 60/92/11 57/91/11
f 53/102/4 61/85/4 59/88/4 52/103/4
f 48/87/7 47/90/7 58/78/7 59/77/7
f 54/89/1 62/73/1 58/76/1 47/90/1
f 65/104/1 63/105/1 64/106/1 66/107/1
f 62/73/5 60/100/5 65/104/5 66/107/5
f 49/83/3 55/82/3 64/108/3 63/98/3
f 55/74/7 62/73/7 66/107/7 64/106/7
f 84/109/1 80/110/1 73/111/1 77/112/1
f 81/113/7 74/114/7 73/115/7 80/116/7
f 75/117/5 72/118/5 71/119/5 77/120/5
f 83/121/4 81/122/4 70/123/4 78/124/4
f 78/124/3 70/123/3 69/125/3 76/126/3
f 79/127/12 68/128/12 67/129/12 82/130/12
f 68/128/3 78/124/3 76/126/3 67/129/3
f 79/131/4 83/121/4 78/124/4 68/128/4
f 74/132/5 75/117/5 77/120/5 73/133/5
f 82/130/2 87/134/2 85/135/2 71/119/2
f 67/129/1 76/126/1 84/109/1 82/136/1
f 72/137/4 75/138/4 83/121/4 79/131/4
f 72/118/11 79/127/11 82/130/11 71/119/11
f 75/138/4 74/139/4 81/122/4 83/121/4
f 70/123/7 81/113/7 80/116/7 69/125/7
f 76/126/1 69/125/1 80/110/1 84/109/1
f 87/140/1 88/141/1 86/142/1 85/143/1
f 84/109/3 88/141/3 87/140/3 82/136/3
f 71/119/5 85/135/5 86/144/5 77/120/5
f 77/112/7 86/142/7 88/141/7 84/109/7
